<?xml version="1.0" encoding="utf-8"?>
<!-- Generator: Adobe Illustrator 16.0.0, SVG Export Plug-In . SVG Version: 6.00 Build 0)  -->
<!DOCTYPE svg PUBLIC "-//W3C//DTD SVG 1.1//EN" "http://www.w3.org/Graphics/SVG/1.1/DTD/svg11.dtd">
<svg version="1.1" id="Layer_1" xmlns="http://www.w3.org/2000/svg" xmlns:xlink="http://www.w3.org/1999/xlink" x="0px" y="0px"
	 width="360px" height="360px" viewBox="0 0 360 360" enable-background="new 0 0 360 360" xml:space="preserve">
<path fill="#EAEAEA" d="M360,345.992c0,7.736-6.271,14.008-14.009,14.008H14.009C6.271,360,0,353.729,0,345.992V14.008
	C0,6.271,6.271,0,14.009,0h331.982C353.729,0,360,6.271,360,14.008V345.992z"/>
<path fill="#989898" d="M91,68v229h174V68H91z M135,278.995c0,3.869-3.136,7.005-7.005,7.005h-13.99
	c-3.869,0-7.005-3.136-7.005-7.005v-13.99c0-3.868,3.136-7.005,7.005-7.005h13.99c3.869,0,7.005,3.137,7.005,7.005V278.995z
	 M135,238.995c0,3.868-3.136,7.005-7.005,7.005h-13.99c-3.869,0-7.005-3.137-7.005-7.005v-13.99c0-3.868,3.136-7.005,7.005-7.005
	h13.99c3.869,0,7.005,3.137,7.005,7.005V238.995z M135,203.996c0,3.868-3.136,7.004-7.005,7.004h-13.99
	c-3.869,0-7.005-3.136-7.005-7.004v-13.992c0-3.868,3.136-7.004,7.005-7.004h13.99c3.869,0,7.005,3.136,7.005,7.004V203.996z
	 M135,167.97c0,3.869-3.075,7.03-6.941,7.03h-13.654c-3.867,0-7.404-3.161-7.404-7.03v-13.653c0-3.869,3.537-6.317,7.404-6.317
	h13.654c3.866,0,6.941,2.448,6.941,6.317V167.97z M175,278.995c0,3.869-3.136,7.005-7.004,7.005h-13.992
	c-3.868,0-7.004-3.136-7.004-7.005v-13.99c0-3.868,3.136-7.005,7.004-7.005h13.992c3.868,0,7.004,3.137,7.004,7.005V278.995z
	 M175,238.995c0,3.868-3.136,7.005-7.004,7.005h-13.992c-3.868,0-7.004-3.137-7.004-7.005v-13.99c0-3.868,3.136-7.005,7.004-7.005
	h13.992c3.868,0,7.004,3.137,7.004,7.005V238.995z M175,203.996c0,3.868-3.136,7.004-7.004,7.004h-13.992
	c-3.868,0-7.004-3.136-7.004-7.004v-13.992c0-3.868,3.136-7.004,7.004-7.004h13.992c3.868,0,7.004,3.136,7.004,7.004V203.996z
	 M174,167.97c0,3.869-2.558,7.03-6.425,7.03h-13.652c-3.867,0-6.923-3.161-6.923-7.03v-13.653c0-3.869,3.056-6.317,6.923-6.317
	h13.652c3.867,0,6.425,2.448,6.425,6.317V167.97z M211,278.62c0,3.869-3.991,6.38-7.862,6.38h-13.646
	c-3.87,0-6.492-2.511-6.492-6.38v-13.653c0-3.869,2.622-6.967,6.492-6.967h13.646c3.871,0,7.862,3.098,7.862,6.967V278.62z
	 M211,239.103c0,3.868-3.991,7.897-7.862,7.897h-13.646c-3.87,0-6.492-4.029-6.492-7.897v-13.653c0-3.869,2.622-7.449,6.492-7.449
	h13.646c3.871,0,7.862,3.58,7.862,7.449V239.103z M211,203.537c0,3.869-3.991,7.463-7.862,7.463h-13.646
	c-3.87,0-6.492-3.594-6.492-7.463v-13.654c0-3.869,2.622-6.883,6.492-6.883h13.646c3.871,0,7.862,3.014,7.862,6.883V203.537z
	 M211,167.97c0,3.869-3.991,7.03-7.862,7.03h-13.646c-3.87,0-6.492-3.161-6.492-7.03v-13.653c0-3.869,2.622-6.317,6.492-6.317
	h13.646c3.871,0,7.862,2.448,7.862,6.317V167.97z M250,232.084v9.106v23.814v1.751v10.857c0,3.868-3.075,3.387-6.942,3.387h-14.01
	c-3.87,0-7.048,0.481-7.048-3.387v-10.857v-1.751V241.19v-9.106v-3.502c0-3.868,3.178-10.582,7.048-10.582h14.01
	c3.867,0,6.942,6.714,6.942,10.582V232.084z M250,203.996c0,3.868-3.136,7.004-7.004,7.004h-13.992
	c-3.868,0-7.004-3.136-7.004-7.004v-13.992c0-3.868,3.136-7.004,7.004-7.004h13.992c3.868,0,7.004,3.136,7.004,7.004V203.996z
	 M250,167.97c0,3.869-3.474,7.03-7.341,7.03h-13.654c-3.867,0-7.005-3.161-7.005-7.03v-13.653c0-3.869,3.138-6.317,7.005-6.317
	h13.654c3.867,0,7.341,2.448,7.341,6.317V167.97z M248,119.393c0,6.963-5.645,12.607-12.607,12.607H119.607
	c-6.963,0-12.607-5.645-12.607-12.607V97.607C107,90.645,112.645,85,119.607,85h115.785C242.355,85,248,90.645,248,97.607V119.393z"
	/>
<path opacity="0.3" fill="#FFFFFF" d="M0,194v151.992C0,353.729,6.271,360,14.009,360h331.982c7.737,0,14.009-6.271,14.009-14.008
	V194H0z"/>
</svg>
