<?xml version="1.0" encoding="utf-8"?>
<!-- Generator: Adobe Illustrator 16.0.0, SVG Export Plug-In . SVG Version: 6.00 Build 0)  -->
<!DOCTYPE svg PUBLIC "-//W3C//DTD SVG 1.1//EN" "http://www.w3.org/Graphics/SVG/1.1/DTD/svg11.dtd">
<svg version="1.1" id="Layer_1" xmlns="http://www.w3.org/2000/svg" xmlns:xlink="http://www.w3.org/1999/xlink" x="0px" y="0px"
	 width="114.334px" height="114.335px" viewBox="0 0 114.334 114.335" enable-background="new 0 0 114.334 114.335"
	 xml:space="preserve">
<g>
	<path fill="#F3F3F3" d="M57.166,0C25.645,0,0,25.645,0,57.167s25.645,57.168,57.166,57.168c31.522,0,57.168-25.646,57.168-57.168
		S88.688,0,57.166,0z M57.166,107.335C29.504,107.335,7,84.83,7,57.167C7,29.505,29.504,7,57.166,7
		c27.663,0,50.168,22.505,50.168,50.167C107.334,84.83,84.829,107.335,57.166,107.335z"/>
	<path fill="#F3F3F3" d="M82.354,31.981c-2.146-2.146-5.631-2.148-7.777,0L57.167,49.39L39.758,31.981
		c-2.146-2.147-5.631-2.147-7.777,0c-2.148,2.148-2.148,5.63,0,7.779l17.408,17.408L31.98,74.576c-2.148,2.147-2.148,5.631,0,7.777
		c1.073,1.074,2.48,1.611,3.889,1.611c1.407,0,2.815-0.537,3.889-1.611l17.409-17.408l17.409,17.408
		c1.073,1.074,2.481,1.611,3.889,1.611c1.408,0,2.815-0.537,3.89-1.611c2.147-2.146,2.147-5.63,0-7.777l-17.41-17.408l17.41-17.408
		C84.502,37.611,84.502,34.129,82.354,31.981z"/>
</g>
</svg>
