<?xml version="1.0" encoding="utf-8"?>
<!-- Generator: Adobe Illustrator 16.0.0, SVG Export Plug-In . SVG Version: 6.00 Build 0)  -->
<!DOCTYPE svg PUBLIC "-//W3C//DTD SVG 1.1//EN" "http://www.w3.org/Graphics/SVG/1.1/DTD/svg11.dtd">
<svg version="1.1" id="Layer_1" xmlns="http://www.w3.org/2000/svg" xmlns:xlink="http://www.w3.org/1999/xlink" x="0px" y="0px"
	 width="101px" height="103px" viewBox="0 0 101 103" enable-background="new 0 0 101 103" xml:space="preserve">
<g>
	<rect fill="#D6D5D5" width="101" height="103"/>
	<path fill="#686969" d="M75.486,31.645c-2.908-3.928-7.176-6.488-12.01-7.212c-0.9-0.134-1.814-0.202-2.717-0.202
		c-8.986,0-16.76,6.709-18.086,15.604c-0.65,4.369,0.305,8.612,2.423,12.126L22.655,73.23l5.275,5.566l22.407-21.232
		c2.238,1.563,4.861,2.646,7.736,3.074c0.903,0.136,1.817,0.203,2.721,0.203c8.983,0,16.758-6.709,18.086-15.604
		C79.604,40.401,78.396,35.574,75.486,31.645z M71.293,44.104c-0.769,5.169-5.283,9.068-10.498,9.068
		c-0.525,0-1.059-0.042-1.587-0.12c-5.799-0.864-9.813-6.285-8.948-12.086c0.771-5.168,5.285-9.064,10.5-9.064
		c0.526,0,1.059,0.037,1.588,0.116c2.809,0.419,5.285,1.907,6.973,4.188C71.014,38.491,71.712,41.295,71.293,44.104z"/>
</g>
</svg>
