<?xml version="1.0" encoding="utf-8"?>
<!-- Generator: Adobe Illustrator 16.0.0, SVG Export Plug-In . SVG Version: 6.00 Build 0)  -->
<!DOCTYPE svg PUBLIC "-//W3C//DTD SVG 1.1//EN" "http://www.w3.org/Graphics/SVG/1.1/DTD/svg11.dtd">
<svg version="1.1" id="Layer_1" xmlns="http://www.w3.org/2000/svg" xmlns:xlink="http://www.w3.org/1999/xlink" x="0px" y="0px"
	 width="360px" height="360px" viewBox="0 0 360 360" enable-background="new 0 0 360 360" xml:space="preserve">
<g>
	<path fill="#EAEAEA" d="M360.5,346.492c0,7.736-6.272,14.008-14.01,14.008H14.51c-7.737,0-14.01-6.271-14.01-14.008V14.508
		C0.5,6.772,6.772,0.5,14.51,0.5h331.98c7.737,0,14.01,6.271,14.01,14.008V346.492z"/>
	<path fill="#989898" d="M250.5,258.03V104.5h-13.084h-17.705H114.317c-6.981,0-11.562-5.625-10.177-12.611l0.348-1.712
		c1.386-6.985,8.181-12.677,15.167-12.677h100.056h23.043H266.5v25.388V258.5h11V95.387c0-14.484-8.82-26.887-23.304-26.887H111.029
		C96.546,68.5,80.5,80.903,80.5,95.387V272.27c0,14.485,16.046,25.23,30.529,25.23H250.5V258.03z"/>
	<path opacity="0.3" fill="#FFFFFF" d="M-0.5,194.5v150.992c0,7.736,6.771,15.008,14.509,15.008h331.982
		c7.737,0,13.509-7.271,13.509-15.008V194.5H-0.5z"/>
</g>
</svg>
