<?xml version="1.0" encoding="utf-8"?>
<!-- Generator: Adobe Illustrator 16.0.0, SVG Export Plug-In . SVG Version: 6.00 Build 0)  -->
<!DOCTYPE svg PUBLIC "-//W3C//DTD SVG 1.1//EN" "http://www.w3.org/Graphics/SVG/1.1/DTD/svg11.dtd">
<svg version="1.1" id="Layer_1" xmlns="http://www.w3.org/2000/svg" xmlns:xlink="http://www.w3.org/1999/xlink" x="0px" y="0px"
	 width="360px" height="360px" viewBox="0 0 360 360" enable-background="new 0 0 360 360" xml:space="preserve">
<g>
	<path fill="#EAEAEA" d="M359.5,346.492c0,7.736-6.271,14.008-14.009,14.008H13.509c-7.737,0-14.009-6.271-14.009-14.008V14.508
		C-0.5,6.772,5.772,0.5,13.509,0.5h331.982c7.737,0,14.009,6.271,14.009,14.008V346.492z"/>
	<g>
		<path fill="#989898" d="M83.439,115.09h47.426c15.78,0,27.49,2.561,35.129,7.681s11.458,12.913,11.458,23.378
			c0,7.722-2.015,14.074-6.044,19.054c-4.029,4.981-9.85,8.31-17.46,9.989c6.267,2.295,11.304,8.813,15.109,19.558v0.084
			l14.271,39.536h-33.156l-10.493-32.653c-1.679-5.259-3.974-8.897-6.883-10.912c-2.91-2.015-7.443-3.021-13.599-3.021h-4.616
			v46.587H83.439V115.09z M114.581,136.075v30.554h11.164c6.883,0,12.045-1.244,15.486-3.734s5.163-6.225,5.163-11.207
			c0-5.371-1.918-9.316-5.75-11.835c-3.834-2.519-9.893-3.777-18.173-3.777H114.581z"/>
		<path fill="#989898" d="M234.783,100.485h9.485v13.683c5.259,0.112,10.547,0.546,15.864,1.301
			c5.315,0.755,10.604,1.833,15.865,3.231l-2.183,21.824c-4.311-2.014-8.801-3.525-13.473-4.532
			c-4.673-1.007-9.584-1.511-14.731-1.511h-1.343v25.602c13.766,2.799,23.965,7.191,30.596,13.178
			c6.632,5.989,9.947,13.796,9.947,23.42c0,10.408-3.666,18.928-10.996,25.56c-7.332,6.632-17.544,10.618-30.639,11.962v14.605
			h-9.568v-14.438h-2.099c-6.044,0-11.809-0.35-17.292-1.05c-5.484-0.699-10.773-1.776-15.864-3.231l2.183-24.427
			c5.259,2.183,10.646,3.849,16.158,4.995c5.511,1.146,11.122,1.776,16.83,1.889l0.084-28.372
			c-12.983-2.351-22.622-6.407-28.918-12.171c-6.295-5.764-9.443-13.459-9.443-23.084c0-9.96,3.413-17.935,10.241-23.923
			c6.826-5.987,16.591-9.54,29.295-10.661V100.485z M234.783,134.985c-4.029,0.615-7.164,1.959-9.401,4.029
			c-2.239,2.07-3.357,4.699-3.357,7.89c0,3.022,1.035,5.471,3.105,7.345c2.069,1.875,5.288,3.261,9.653,4.155V134.985z
			 M243.177,185.852v26.105c4.42-0.223,7.82-1.44,10.199-3.652c2.378-2.209,3.567-5.217,3.567-9.023
			c0-3.469-1.105-6.281-3.315-8.436C251.416,188.693,247.933,187.027,243.177,185.852z"/>
	</g>
	<path opacity="0.3" fill="#FFFFFF" d="M-0.5,194.5v150.992c0,7.736,7.271,15.008,15.009,15.008h331.982
		c7.737,0,13.009-7.271,13.009-15.008V194.5H-0.5z"/>
</g>
</svg>
