<?xml version="1.0" encoding="utf-8"?>
<!-- Generator: Adobe Illustrator 16.0.0, SVG Export Plug-In . SVG Version: 6.00 Build 0)  -->
<!DOCTYPE svg PUBLIC "-//W3C//DTD SVG 1.1//EN" "http://www.w3.org/Graphics/SVG/1.1/DTD/svg11.dtd">
<svg version="1.1" id="Layer_1" xmlns="http://www.w3.org/2000/svg" xmlns:xlink="http://www.w3.org/1999/xlink" x="0px" y="0px"
	 width="360px" height="360px" viewBox="0 0 360 360" enable-background="new 0 0 360 360" xml:space="preserve">
<g>
	<path fill="#EAEAEA" d="M359.5,346.492c0,7.736-6.271,14.008-14.009,14.008H13.509c-7.737,0-14.009-6.271-14.009-14.008V14.508
		C-0.5,6.772,5.772,0.5,13.509,0.5h331.982c7.737,0,14.009,6.271,14.009,14.008V346.492z"/>
	<g>
		<rect x="48.5" y="62.5" fill="#989898" width="261" height="32"/>
		<rect x="48.5" y="130.5" fill="#989898" width="261" height="32"/>
		<rect x="48.5" y="198.5" fill="#989898" width="261" height="32"/>
		<rect x="48.5" y="266.5" fill="#989898" width="261" height="32"/>
	</g>
	<path opacity="0.3" fill="#FFFFFF" d="M-0.5,194.5v150.992c0,7.736,7.271,15.008,15.009,15.008h331.982
		c7.737,0,13.009-7.271,13.009-15.008V194.5H-0.5z"/>
</g>
</svg>
