<?xml version="1.0" encoding="utf-8"?>
<!-- Generator: Adobe Illustrator 16.0.0, SVG Export Plug-In . SVG Version: 6.00 Build 0)  -->
<!DOCTYPE svg PUBLIC "-//W3C//DTD SVG 1.1//EN" "http://www.w3.org/Graphics/SVG/1.1/DTD/svg11.dtd">
<svg version="1.1" id="Layer_1" xmlns="http://www.w3.org/2000/svg" xmlns:xlink="http://www.w3.org/1999/xlink" x="0px" y="0px"
	 width="360px" height="360px" viewBox="0 0 360 360" enable-background="new 0 0 360 360" xml:space="preserve">
<g>
	<path fill="#EAEAEA" d="M359.5,346.492c0,7.736-6.271,14.008-14.009,14.008H13.509c-7.737,0-14.009-6.271-14.009-14.008V14.508
		C-0.5,6.772,5.772,0.5,13.509,0.5h331.982c7.737,0,14.009,6.271,14.009,14.008V346.492z"/>
	<path fill="#989898" d="M186.662,61.545c0,0,44.105,5.008,44.105,35.822c0,30.816,2.408,58.742-9.149,74.92
		c-11.556,16.179-13.818,22.438-7.655,29.372c6.162,6.933,10.811,18.761,37.772,28.776c26.965,10.016,57.804,13.064,57.804,68.064
		H51.461c0-55,30.814-58.002,57.778-68.018s31.586-21.105,37.749-28.038c6.162-6.934,3.853-13.44-7.703-29.619
		s-9.246-44.469-9.246-75.285c0-30.815,43.913-35.909,43.913-35.909s5.329-0.235,7.047-0.235
		C182.459,61.396,186.662,61.545,186.662,61.545z"/>
	<path opacity="0.3" fill="#FFFFFF" d="M-0.5,194.5v150.992c0,7.736,7.271,15.008,15.009,15.008h331.982
		c7.737,0,13.009-7.271,13.009-15.008V194.5H-0.5z"/>
</g>
</svg>
