<?xml version="1.0" encoding="utf-8"?>
<!-- Generator: Adobe Illustrator 16.0.0, SVG Export Plug-In . SVG Version: 6.00 Build 0)  -->
<!DOCTYPE svg PUBLIC "-//W3C//DTD SVG 1.1//EN" "http://www.w3.org/Graphics/SVG/1.1/DTD/svg11.dtd">
<svg version="1.1" id="Layer_1" xmlns="http://www.w3.org/2000/svg" xmlns:xlink="http://www.w3.org/1999/xlink" x="0px" y="0px"
	 width="360px" height="360px" viewBox="0 0 360 360" enable-background="new 0 0 360 360" xml:space="preserve">
<g>
	<path fill="#EAEAEA" d="M359.5,346.492c0,7.736-6.271,14.008-14.009,14.008H13.509c-7.737,0-14.009-6.271-14.009-14.008V14.508
		C-0.5,6.772,5.772,0.5,13.509,0.5h331.982c7.737,0,14.009,6.271,14.009,14.008V346.492z"/>
	<path fill="#989898" d="M279.613,95.5H86.289c-15.325,0-31.789,5.472-31.789,19.93v123.684c0,7.551,4.937,14.775,10.333,20.172
		c4.649,4.649,15.918,11.215,21.456,11.215h193.324c15.417,0,19.887-17.369,19.887-31.387V115.43
		C299.5,100.955,294.059,95.5,279.613,95.5z M281.658,249.51l-65.832-63.449l67.674-67.021v120.074
		C283.5,243.079,283.694,247.296,281.658,249.51z M144.745,185.821l-66.697,62.866c-3.426-2.476-6.548-6.283-6.548-9.573
		l-0.011-123.588c0.039-0.129,0.214-0.368,0.405-0.607L144.745,185.821z M156.818,199.025l19.003,16.882
		c1.489,1.462,3.458,2.142,5.543,2.142c2.069,0,4.027-0.856,5.45-2.241l19.119-16.572l56.739,56.266H99.893L156.818,199.025z
		 M198.921,182.082l-17.532,17.461L89.041,110.5h185.692l-72.698,69.535C201.99,180.053,199.485,181.516,198.921,182.082z"/>
	<path opacity="0.3" fill="#FFFFFF" d="M-0.5,194.5v150.992c0,7.736,7.271,15.008,15.009,15.008h331.982
		c7.737,0,13.009-7.271,13.009-15.008V194.5H-0.5z"/>
</g>
</svg>
