<?xml version="1.0" encoding="utf-8"?>
<!-- Generator: Adobe Illustrator 16.0.0, SVG Export Plug-In . SVG Version: 6.00 Build 0)  -->
<!DOCTYPE svg PUBLIC "-//W3C//DTD SVG 1.1//EN" "http://www.w3.org/Graphics/SVG/1.1/DTD/svg11.dtd">
<svg version="1.1" id="Layer_1" xmlns="http://www.w3.org/2000/svg" xmlns:xlink="http://www.w3.org/1999/xlink" x="0px" y="0px"
	 width="360px" height="360px" viewBox="0 0 360 360" enable-background="new 0 0 360 360" xml:space="preserve">
<g>
	<path fill="#EAEAEA" d="M359.5,346.492c0,7.736-6.271,14.008-14.009,14.008H13.509c-7.737,0-14.009-6.271-14.009-14.008V14.508
		C-0.5,6.772,5.772,0.5,13.509,0.5h331.982c7.737,0,14.009,6.271,14.009,14.008V346.492z"/>
	<path fill="#989898" d="M266.301,115.5h-11.276h-5.336c-7.327,0-15.188-6.942-15.188-14.269v-4.644V79.342
		c0-7.326-3.987-11.842-11.314-11.842h-9.761h-24.067H95.802c-7.326,0-15.302,4.516-15.302,11.842v200.316
		c0,7.326,7.976,13.842,15.302,13.842h170.469c7.326,0,11.229-6.516,11.229-13.842V191.44v-50.41v-13.267
		C277.5,120.437,273.627,115.5,266.301,115.5z M245.5,251.5h-131v-16h131V251.5z M245.5,222.5h-131v-16h131V222.5z M245.5,192.5
		h-131v-15h131V192.5z M245.5,163.5h-131v-16h131V163.5z"/>
	<path opacity="0.3" fill="#FFFFFF" d="M-0.5,194.5v150.992c0,7.736,7.271,15.008,15.009,15.008h331.982
		c7.737,0,13.009-7.271,13.009-15.008V194.5H-0.5z"/>
	<path opacity="0.3" fill="#FFFFFF" d="M-0.5,194.5v150.992c0,7.736,7.271,15.008,15.009,15.008h331.982
		c7.737,0,13.009-7.271,13.009-15.008V194.5H-0.5z"/>
</g>
</svg>
