<?xml version="1.0" encoding="utf-8"?>
<!-- Generator: Adobe Illustrator 16.0.0, SVG Export Plug-In . SVG Version: 6.00 Build 0)  -->
<!DOCTYPE svg PUBLIC "-//W3C//DTD SVG 1.1//EN" "http://www.w3.org/Graphics/SVG/1.1/DTD/svg11.dtd">
<svg version="1.1" id="Layer_1" xmlns="http://www.w3.org/2000/svg" xmlns:xlink="http://www.w3.org/1999/xlink" x="0px" y="0px"
	 width="70.356px" height="93.799px" viewBox="0 0 70.356 93.799" enable-background="new 0 0 70.356 93.799" xml:space="preserve">
<g>
	<path fill="#FFFFFF" d="M0.953,41.521c0.426,0.13,0.89,0.021,1.212-0.289c9.372-8.995,18.612-13.557,27.465-13.557
		c5.896,0,9.933,2.125,11.439,3.073L37.852,42.09c-0.131,0.461,0.019,0.956,0.382,1.269c0.228,0.195,0.513,0.296,0.801,0.296
		c0.173,0,0.347-0.036,0.51-0.11l30.094-13.731c0.328-0.15,0.573-0.437,0.672-0.783c0.099-0.348,0.039-0.72-0.161-1.02L51.742,0.546
		c-0.267-0.397-0.737-0.608-1.214-0.529c-0.473,0.074-0.859,0.418-0.99,0.878l-2.856,10.071c-1.71-0.391-5.093-1.013-9.292-1.013
		c-7.29,0-13.664,1.82-18.922,5.394C-2.163,28.682,0.01,40.122,0.111,40.602C0.205,41.038,0.527,41.39,0.953,41.521z"/>
	<path fill="#FFFFFF" d="M70.244,53.197c-0.093-0.437-0.415-0.788-0.841-0.919c-0.426-0.13-0.89-0.021-1.212,0.289
		c-9.372,8.995-18.612,13.557-27.465,13.557c-5.896,0-9.933-2.125-11.439-3.073l3.218-11.342c0.131-0.461-0.019-0.956-0.382-1.268
		c-0.228-0.196-0.513-0.297-0.801-0.297c-0.173,0-0.347,0.036-0.511,0.11L0.719,63.987c-0.328,0.149-0.574,0.436-0.672,0.782
		c-0.099,0.348-0.04,0.72,0.161,1.02l18.406,27.464c0.267,0.397,0.737,0.608,1.213,0.529c0.474-0.074,0.86-0.418,0.991-0.878
		l2.856-10.071c1.709,0.391,5.093,1.013,9.292,1.013c7.29,0,13.664-1.82,18.922-5.394C72.52,65.117,70.347,53.677,70.244,53.197z"/>
</g>
</svg>
