<?xml version="1.0" encoding="utf-8"?>
<!-- Generator: Adobe Illustrator 16.0.0, SVG Export Plug-In . SVG Version: 6.00 Build 0)  -->
<!DOCTYPE svg PUBLIC "-//W3C//DTD SVG 1.1//EN" "http://www.w3.org/Graphics/SVG/1.1/DTD/svg11.dtd">
<svg version="1.1" id="Layer_1" xmlns="http://www.w3.org/2000/svg" xmlns:xlink="http://www.w3.org/1999/xlink" x="0px" y="0px"
	 width="80.636px" height="78.256px" viewBox="0 0 80.636 78.256" enable-background="new 0 0 80.636 78.256" xml:space="preserve">
<path fill="#FFFFFF" d="M75.771,10.633C71.598,4.997,65.48,1.324,58.546,0.29C57.256,0.098,55.944,0,54.647,0
	C41.764,0,30.613,9.621,28.711,22.38c-0.935,6.264,0.438,12.35,3.476,17.392L0,70.271l7.566,7.984l32.136-30.451
	c3.212,2.238,6.971,3.794,11.099,4.41c1.29,0.192,2.602,0.29,3.898,0.29c12.884,0,24.034-9.621,25.937-22.38
	C81.671,23.19,79.942,16.268,75.771,10.633z M69.757,28.502c-1.105,7.413-7.579,13.003-15.058,13.003
	c-0.755,0-1.521-0.057-2.275-0.169c-8.316-1.241-14.074-9.017-12.834-17.333C40.695,16.59,47.169,11,54.647,11
	c0.755,0,1.521,0.057,2.275,0.169c4.029,0.602,7.583,2.735,10.007,6.009S70.357,24.474,69.757,28.502z"/>
</svg>
