<?xml version="1.0" encoding="utf-8"?>
<!-- Generator: Adobe Illustrator 16.0.0, SVG Export Plug-In . SVG Version: 6.00 Build 0)  -->
<!DOCTYPE svg PUBLIC "-//W3C//DTD SVG 1.1//EN" "http://www.w3.org/Graphics/SVG/1.1/DTD/svg11.dtd">
<svg version="1.1" id="Layer_1" xmlns="http://www.w3.org/2000/svg" xmlns:xlink="http://www.w3.org/1999/xlink" x="0px" y="0px"
	 width="45px" height="23px" viewBox="0 0 45 23" enable-background="new 0 0 45 23" xml:space="preserve">
<g>
	<g>
		<path fill="#4E4E4E" d="M43.5,3h-42C0.671,3,0,2.329,0,1.5S0.671,0,1.5,0h42C44.329,0,45,0.671,45,1.5S44.329,3,43.5,3z"/>
	</g>
	<g>
		<path fill="#4E4E4E" d="M43.5,13h-42C0.671,13,0,12.329,0,11.5S0.671,10,1.5,10h42c0.829,0,1.5,0.671,1.5,1.5S44.329,13,43.5,13z"
			/>
	</g>
	<g>
		<path fill="#4E4E4E" d="M43.5,23h-42C0.671,23,0,22.329,0,21.5S0.671,20,1.5,20h42c0.829,0,1.5,0.671,1.5,1.5S44.329,23,43.5,23z"
			/>
	</g>
</g>
</svg>
