<?xml version="1.0" encoding="utf-8"?>
<!-- Generator: Adobe Illustrator 16.0.0, SVG Export Plug-In . SVG Version: 6.00 Build 0)  -->
<!DOCTYPE svg PUBLIC "-//W3C//DTD SVG 1.1//EN" "http://www.w3.org/Graphics/SVG/1.1/DTD/svg11.dtd">
<svg version="1.1" id="Layer_1" xmlns="http://www.w3.org/2000/svg" xmlns:xlink="http://www.w3.org/1999/xlink" x="0px" y="0px"
	 width="482.785px" height="88.856px" viewBox="0 0 482.785 88.856" enable-background="new 0 0 482.785 88.856"
	 xml:space="preserve">
<g>
	<path fill="#3B5763" d="M117.655,4.854h10.778l24.808,63.291h-9.576l-6.102-16.257h-30.108l-6.102,16.257h-8.952L117.655,4.854z
		 M122.866,12.604l-12.561,32.202h24.72L122.866,12.604z"/>
	<path fill="#3B5763" d="M168.296,60.751v26.456h-8.463V22.358h7.661v8.863c1.781-3.236,4.053-5.708,6.814-7.416
		c2.762-1.707,5.879-2.561,9.354-2.561c5.611,0,10.154,2.116,13.629,6.347c3.474,4.231,5.211,9.806,5.211,16.725
		c0,7.482-1.753,13.443-5.256,17.882c-3.504,4.439-8.166,6.659-13.985,6.659c-3.236,0-6.117-0.684-8.641-2.049
		C172.096,65.444,169.988,63.424,168.296,60.751z M193.594,44.895c0-5.226-1.091-9.33-3.273-12.314s-5.174-4.477-8.975-4.477
		c-3.92,0-7.075,1.537-9.465,4.609c-2.391,3.074-3.585,7.164-3.585,12.271c0,5.315,1.15,9.517,3.451,12.604s5.382,4.632,9.242,4.632
		c3.859,0,6.926-1.551,9.197-4.654C192.458,54.464,193.594,50.24,193.594,44.895z"/>
	<path fill="#3B5763" d="M213.77,0h8.463v68.145h-8.463V0z"/>
	<path fill="#3B5763" d="M236.573,1.38h8.463v8.462h-8.463V1.38z M236.573,22.358h8.463v45.787h-8.463V22.358z"/>
	<path fill="#3B5763" d="M291.668,23.917L291,31.222c-1.396-0.771-2.933-1.365-4.61-1.781c-1.678-0.416-3.422-0.624-5.233-0.624
		c-4.721,0-8.544,1.507-11.469,4.521c-2.925,3.015-4.387,6.956-4.387,11.825c0,4.988,1.418,8.99,4.254,12.004
		c2.835,3.014,6.613,4.521,11.335,4.521c1.722,0,3.451-0.215,5.188-0.646c1.737-0.43,3.511-1.075,5.322-1.937l0.445,7.482
		c-1.9,0.712-3.875,1.24-5.923,1.581c-2.049,0.341-4.158,0.512-6.325,0.512c-7.008,0-12.634-2.13-16.88-6.391
		c-4.247-4.261-6.369-9.91-6.369-16.947c0-7.008,2.189-12.649,6.569-16.925s10.162-6.414,17.348-6.414
		c2.108,0,4.112,0.156,6.013,0.467C288.179,22.782,289.976,23.265,291.668,23.917z"/>
	<path fill="#3B5763" d="M336.163,40.308v27.837h-7.819v-7.661c-1.768,2.792-3.946,4.87-6.538,6.236
		c-2.592,1.365-5.596,2.049-9.012,2.049c-4.329,0-7.826-1.248-10.491-3.742s-3.998-5.745-3.998-9.754
		c0-4.988,2.018-8.804,6.053-11.446c4.034-2.643,9.851-3.964,17.45-3.964h5.893v-0.891c0-3.563-0.991-6.34-2.973-8.329
		c-1.982-1.989-4.721-2.984-8.215-2.984c-1.968,0-4.008,0.319-6.122,0.958c-2.114,0.639-4.288,1.597-6.519,2.873l-0.089-6.948
		c2.286-1.098,4.69-1.922,7.215-2.472c2.523-0.549,5.226-0.824,8.106-0.824c5.671,0,9.932,1.589,12.782,4.766
		C334.737,29.188,336.163,33.955,336.163,40.308z M322.379,45.519c-5.042,0-8.905,0.802-11.588,2.405s-4.024,3.904-4.024,6.903
		c0,2.287,0.763,4.164,2.287,5.635c1.524,1.47,3.503,2.204,5.937,2.204c3.841,0,6.919-1.247,9.235-3.741
		c2.315-2.494,3.475-5.835,3.475-10.021v-3.385H322.379z"/>
	<path fill="#3B5763" d="M382.216,23.917l-0.668,7.304c-1.396-0.771-2.933-1.365-4.61-1.781c-1.678-0.416-3.422-0.624-5.233-0.624
		c-4.721,0-8.544,1.507-11.469,4.521c-2.925,3.015-4.387,6.956-4.387,11.825c0,4.988,1.418,8.99,4.254,12.004
		c2.835,3.014,6.613,4.521,11.335,4.521c1.722,0,3.451-0.215,5.188-0.646c1.737-0.43,3.511-1.075,5.322-1.937l0.445,7.482
		c-1.9,0.712-3.875,1.24-5.923,1.581c-2.049,0.341-4.158,0.512-6.325,0.512c-7.008,0-12.634-2.13-16.88-6.391
		c-4.247-4.261-6.369-9.91-6.369-16.947c0-7.008,2.189-12.649,6.569-16.925s10.162-6.414,17.348-6.414
		c2.108,0,4.112,0.156,6.013,0.467C378.727,22.782,380.523,23.265,382.216,23.917z M363.955,68.145h3.563v4.543h0.802
		c3.147,0,5.574,0.69,7.282,2.071c1.707,1.381,2.562,3.348,2.562,5.901c0,2.672-0.898,4.706-2.695,6.102s-4.446,2.094-7.95,2.094
		c-1.574,0-3.296-0.149-5.166-0.445c-1.871-0.298-3.949-0.758-6.235-1.381v-4.187c2.731,0.594,4.936,1.031,6.614,1.313
		c1.677,0.282,2.99,0.423,3.941,0.423c1.93,0,3.34-0.312,4.231-0.935c0.891-0.624,1.336-1.589,1.336-2.896
		c0-1.455-0.49-2.51-1.47-3.162c-0.98-0.653-2.555-0.979-4.722-0.979c-0.534,0-0.935,0.007-1.202,0.021s-0.534,0.037-0.802,0.067
		L363.955,68.145z"/>
	<path fill="#3B5763" d="M426.711,40.308v27.837h-7.819v-7.661c-1.768,2.792-3.946,4.87-6.538,6.236
		c-2.592,1.365-5.596,2.049-9.012,2.049c-4.329,0-7.826-1.248-10.491-3.742s-3.998-5.745-3.998-9.754
		c0-4.988,2.018-8.804,6.053-11.446c4.034-2.643,9.851-3.964,17.45-3.964h5.893v-0.891c0-3.563-0.991-6.34-2.973-8.329
		c-1.982-1.989-4.721-2.984-8.215-2.984c-1.968,0-4.008,0.319-6.122,0.958c-2.114,0.639-4.288,1.597-6.519,2.873l-0.089-6.948
		c2.286-1.098,4.69-1.922,7.215-2.472c2.523-0.549,5.226-0.824,8.106-0.824c5.671,0,9.932,1.589,12.782,4.766
		C425.285,29.188,426.711,33.955,426.711,40.308z M418.604,3.919h4.009c-0.772,2.969-1.887,5.188-3.341,6.659
		c-1.455,1.47-3.267,2.205-5.434,2.205c-0.416,0-0.876-0.037-1.381-0.111c-0.505-0.074-1.04-0.185-1.604-0.334l-4.32-1.292
		c-0.594-0.178-1.076-0.296-1.447-0.356c-0.372-0.06-0.706-0.089-1.002-0.089c-0.98,0-1.804,0.267-2.473,0.802
		c-0.668,0.535-1.21,1.352-1.625,2.45h-4.098c0.742-2.939,1.841-5.145,3.296-6.614c1.454-1.47,3.311-2.205,5.567-2.205
		c0.563,0,1.083,0.03,1.559,0.089c0.475,0.06,0.92,0.149,1.336,0.267l4.32,1.381c0.445,0.149,0.876,0.26,1.292,0.334
		c0.415,0.074,0.802,0.111,1.158,0.111c0.979,0,1.818-0.274,2.517-0.824C417.632,5.842,418.188,5.018,418.604,3.919z
		 M412.927,45.519c-5.042,0-8.905,0.802-11.588,2.405s-4.024,3.904-4.024,6.903c0,2.287,0.763,4.164,2.287,5.635
		c1.524,1.47,3.503,2.204,5.937,2.204c3.841,0,6.919-1.247,9.235-3.741c2.315-2.494,3.475-5.835,3.475-10.021v-3.385H412.927z"/>
	<path fill="#3B5763" d="M460.07,21.245c7.037,0,12.582,2.146,16.635,6.436c4.054,4.291,6.08,10.147,6.08,17.57
		c0,7.364-2.042,13.206-6.124,17.526c-4.083,4.32-9.614,6.48-16.591,6.48c-6.979,0-12.493-2.152-16.547-6.458
		c-4.053-4.305-6.079-10.155-6.079-17.549c0-7.423,2.026-13.279,6.079-17.57C447.577,23.391,453.092,21.245,460.07,21.245z
		 M460.159,27.748c-4.068,0-7.364,1.596-9.888,4.788c-2.524,3.192-3.786,7.401-3.786,12.627c0,5.167,1.262,9.347,3.786,12.538
		c2.523,3.192,5.819,4.788,9.888,4.788c4.127,0,7.438-1.574,9.932-4.722c2.495-3.146,3.742-7.349,3.742-12.604
		c0-5.285-1.247-9.509-3.742-12.672C467.597,29.329,464.286,27.748,460.159,27.748z"/>
</g>
<g>
	<circle fill="#3B5763" cx="38.311" cy="42.125" r="38.311"/>
	<g>
		
			<line fill="none" stroke="#ABB8C0" stroke-width="10" stroke-linecap="round" stroke-miterlimit="10" x1="17.256" y1="50.639" x2="38.037" y2="27.531"/>
		
			<line fill="none" stroke="#ABB8C0" stroke-width="10" stroke-linecap="round" stroke-miterlimit="10" x1="59.365" y1="50.639" x2="38.585" y2="27.531"/>
	</g>
</g>
</svg>
