<?xml version="1.0" encoding="utf-8"?>
<!-- Generator: Adobe Illustrator 16.0.0, SVG Export Plug-In . SVG Version: 6.00 Build 0)  -->
<!DOCTYPE svg PUBLIC "-//W3C//DTD SVG 1.1//EN" "http://www.w3.org/Graphics/SVG/1.1/DTD/svg11.dtd">
<svg version="1.1" id="Layer_1" xmlns="http://www.w3.org/2000/svg" xmlns:xlink="http://www.w3.org/1999/xlink" x="0px" y="0px"
	 width="841.889px" height="142.289px" viewBox="0 0 841.889 142.289" enable-background="new 0 0 841.889 142.289"
	 xml:space="preserve">
<g>
	<g>
		<path fill="#989898" d="M229.625,35.95l-1.183,14.788c-0.353-0.132-0.812-0.306-1.38-0.526
			c-8.677-3.242-15.445-4.863-20.309-4.863c-10.253,0-18.446,3.177-24.58,9.53c-6.135,6.354-9.202,14.811-9.202,25.37
			c0,9.988,3.166,18.096,9.497,24.316c6.331,6.223,14.689,9.332,25.073,9.332c3.461,0,8.675-1.203,15.642-3.613
			c2.454-0.832,4.293-1.424,5.521-1.775l1.577,14.789c-1.14,0.307-2.826,0.766-5.06,1.381c-8.458,2.408-14.877,3.613-19.257,3.613
			c-16.08,0-28.765-4.316-38.053-12.947c-9.289-8.631-13.933-20.33-13.933-35.096s4.654-26.672,13.965-35.721
			c9.311-9.047,21.656-13.572,37.034-13.572c4.776,0,11.239,1.183,19.389,3.549C226.777,35.161,228.53,35.644,229.625,35.95z"/>
		<path fill="#989898" d="M269.912,32.993h22.214l36.081,93.391h-19.849l-7.755-22.082h-40.682l-8.084,22.082h-18.271
			L269.912,32.993z M280.691,48.569l-15.642,41.997h30.692L280.691,48.569z"/>
		<path fill="#989898" d="M322.622,32.993h67.956v14.393h-24.909v78.998h-18.468V47.385h-24.58L322.622,32.993L322.622,32.993z"/>
		<path fill="#989898" d="M427.578,32.993h22.214l36.081,93.391h-19.848l-7.755-22.082h-40.683l-8.083,22.082h-18.271
			L427.578,32.993z M438.357,48.569l-15.642,41.997h30.691L438.357,48.569z M440.724,0h15.378l-20.11,23.66h-8.347L440.724,0z"/>
		<path fill="#989898" d="M493.957,32.993h18.402v79.129h37.46v14.262h-55.862V32.993z"/>
		<path fill="#989898" d="M597.074,30.956c13.713,0,24.523,4.337,32.434,13.013c7.909,8.675,11.864,20.57,11.864,35.687
			c0,15.16-3.935,27.057-11.798,35.688c-7.865,8.631-18.697,12.947-32.5,12.947c-13.758,0-24.558-4.316-32.4-12.947
			c-7.844-8.631-11.765-20.527-11.765-35.688c0-15.204,3.931-27.121,11.798-35.754C572.571,35.271,583.361,30.956,597.074,30.956z
			 M597.074,44.822c-7.623,0-13.768,3.145-18.435,9.431c-4.666,6.288-6.998,14.667-6.998,25.139c0,10.516,2.32,18.939,6.965,25.271
			s10.801,9.496,18.469,9.496c7.667,0,13.845-3.176,18.533-9.529c4.688-6.354,7.032-14.766,7.032-25.238
			c0-10.427-2.345-18.796-7.032-25.105C610.921,47.977,604.742,44.822,597.074,44.822z"/>
		<path fill="#989898" d="M734.499,35.95l-1.906,14.656c-0.482-0.174-1.183-0.415-2.104-0.723c-9.332-3.286-16.604-4.93-21.818-4.93
			c-10.429,0-18.919,3.297-25.468,9.892c-6.551,6.595-9.825,15.063-9.825,25.401c0,9.902,3.131,17.986,9.397,24.252
			c6.266,6.268,14.436,9.398,24.514,9.398c2.279,0,5.608-0.723,9.99-2.168c0.962-0.307,1.664-0.525,2.102-0.658l0.065-23.855
			h-17.284V74.003h34.636v48.24c-6.88,2.279-12.578,3.857-17.089,4.732c-4.514,0.875-8.83,1.314-12.947,1.314
			c-16.212,0-28.994-4.316-38.349-12.947s-14.031-20.396-14.031-35.293c0-15.16,4.775-27.132,14.326-35.918
			c9.551-8.784,22.653-13.177,39.303-13.177c3.985,0,10.208,1.051,18.665,3.154C730.139,34.942,732.746,35.556,734.499,35.95z"/>
		<path fill="#989898" d="M797.592,30.956c13.713,0,24.523,4.337,32.434,13.013c7.909,8.675,11.863,20.57,11.863,35.687
			c0,15.16-3.934,27.057-11.797,35.688c-7.865,8.631-18.697,12.947-32.5,12.947c-13.758,0-24.558-4.316-32.4-12.947
			c-7.844-8.631-11.765-20.527-11.765-35.688c0-15.204,3.931-27.121,11.797-35.754C773.087,35.271,783.877,30.956,797.592,30.956z
			 M797.592,44.822c-7.623,0-13.768,3.145-18.436,9.431c-4.665,6.288-6.997,14.667-6.997,25.139c0,10.516,2.319,18.939,6.965,25.271
			c4.645,6.332,10.801,9.496,18.469,9.496c7.667,0,13.845-3.176,18.533-9.529c4.688-6.354,7.032-14.766,7.032-25.238
			c0-10.427-2.345-18.796-7.032-25.105C811.439,47.977,805.259,44.822,797.592,44.822z"/>
	</g>
	<path fill="#989898" d="M104.048,120.708v-94.03h-6.42H86.794H22.311c-4.273,0-7.072-3.394-6.225-7.668l0.209-0.371
		c0.848-4.274,5.006-7.079,9.281-7.079h61.218h14.1h12.938v14.225v93.38h8.003v-97.97c0-8.862-5.078-17.638-13.938-17.638H20.299
		C11.436,3.557,0,12.333,0,21.195v108.222c0,8.865,11.436,12.871,20.299,12.871h83.749V120.708z"/>
</g>
</svg>
