<?xml version="1.0" encoding="utf-8"?>
<!-- Generator: Adobe Illustrator 16.0.0, SVG Export Plug-In . SVG Version: 6.00 Build 0)  -->
<!DOCTYPE svg PUBLIC "-//W3C//DTD SVG 1.1//EN" "http://www.w3.org/Graphics/SVG/1.1/DTD/svg11.dtd">
<svg version="1.1" id="Layer_1" xmlns="http://www.w3.org/2000/svg" xmlns:xlink="http://www.w3.org/1999/xlink" x="0px" y="0px"
	 width="220.228px" height="44px" viewBox="0 0 220.228 44" enable-background="new 0 0 220.228 44" xml:space="preserve">
<g>
	<g>
		<path fill="#676767" d="M75.866,26.178h-9.483v8.795h10.568v2.643H63.234V13.221h13.175v2.642H66.382v7.709h9.483V26.178z"/>
		<path fill="#676767" d="M101.601,26.902c-0.181-3.403-0.397-7.493-0.361-10.533h-0.109c-0.832,2.859-1.846,5.899-3.076,9.265
			l-4.307,11.836h-2.389l-3.945-11.619c-1.158-3.438-2.136-6.586-2.823-9.482h-0.072c-0.072,3.04-0.254,7.13-0.471,10.786
			l-0.651,10.46h-3.004l1.701-24.395h4.017l4.163,11.799c1.013,3.004,1.846,5.683,2.461,8.217h0.108
			c0.615-2.462,1.484-5.141,2.57-8.217l4.343-11.799h4.018l1.521,24.395h-3.077L101.601,26.902z"/>
		<path fill="#676767" d="M110.148,13.51c1.52-0.253,3.511-0.471,6.044-0.471c3.113,0,5.393,0.724,6.841,2.027
			c1.339,1.158,2.136,2.932,2.136,5.104c0,2.208-0.651,3.945-1.883,5.212c-1.664,1.773-4.379,2.679-7.455,2.679
			c-0.941,0-1.811-0.037-2.534-0.218v9.772h-3.148V13.51z M113.296,25.273c0.688,0.181,1.557,0.253,2.606,0.253
			c3.8,0,6.116-1.846,6.116-5.212c0-3.221-2.28-4.777-5.755-4.777c-1.375,0-2.425,0.108-2.968,0.253V25.273z"/>
		<path fill="#676767" d="M129.406,13.546c1.593-0.326,3.872-0.507,6.044-0.507c3.366,0,5.538,0.615,7.058,1.991
			c1.231,1.086,1.919,2.75,1.919,4.633c0,3.221-2.027,5.356-4.597,6.226v0.108c1.882,0.651,3.004,2.389,3.583,4.923
			c0.796,3.402,1.375,5.754,1.882,6.695h-3.257c-0.398-0.688-0.941-2.787-1.629-5.827c-0.725-3.366-2.027-4.633-4.887-4.741h-2.968
			v10.568h-3.148V13.546z M132.554,24.658h3.222c3.366,0,5.501-1.846,5.501-4.633c0-3.149-2.28-4.524-5.609-4.561
			c-1.521,0-2.606,0.145-3.113,0.29V24.658z"/>
		<path fill="#676767" d="M161.513,26.178h-9.483v8.795h10.568v2.643h-13.717V13.221h13.174v2.642H152.03v7.709h9.483V26.178z"/>
		<path fill="#676767" d="M166.256,33.779c1.411,0.868,3.475,1.592,5.646,1.592c3.221,0,5.104-1.701,5.104-4.162
			c0-2.28-1.304-3.584-4.597-4.85c-3.981-1.412-6.442-3.475-6.442-6.914c0-3.8,3.148-6.624,7.89-6.624
			c2.497,0,4.308,0.579,5.393,1.195l-0.868,2.569c-0.796-0.434-2.425-1.158-4.633-1.158c-3.33,0-4.597,1.991-4.597,3.656
			c0,2.28,1.484,3.402,4.85,4.705c4.126,1.593,6.226,3.584,6.226,7.166c0,3.765-2.787,7.021-8.542,7.021
			c-2.353,0-4.922-0.688-6.225-1.556L166.256,33.779z"/>
		<path fill="#676767" d="M188.483,29.941l-2.534,7.674h-3.257l8.288-24.395h3.8l8.325,24.395h-3.366l-2.605-7.674H188.483z
			 M196.481,27.48l-2.389-7.021c-0.543-1.593-0.904-3.041-1.267-4.452h-0.072c-0.362,1.448-0.76,2.932-1.23,4.416l-2.389,7.057
			H196.481z"/>
		<path fill="#676767" d="M206.257,33.779c1.411,0.868,3.475,1.592,5.646,1.592c3.221,0,5.104-1.701,5.104-4.162
			c0-2.28-1.304-3.584-4.597-4.85c-3.981-1.412-6.443-3.475-6.443-6.914c0-3.8,3.149-6.624,7.891-6.624
			c2.497,0,4.308,0.579,5.393,1.195l-0.868,2.569c-0.796-0.434-2.425-1.158-4.633-1.158c-3.33,0-4.597,1.991-4.597,3.656
			c0,2.28,1.484,3.402,4.85,4.705c4.127,1.593,6.226,3.584,6.226,7.166c0,3.765-2.787,7.021-8.542,7.021
			c-2.353,0-4.922-0.688-6.225-1.556L206.257,33.779z"/>
	</g>
	<path fill="#676767" d="M54.869,21.618C51.352,18.825,48,15.793,45,13V4.673C45,4.427,43.43,4,43.184,4h-5.801
		C37.135,4,38,4.427,38,4.673v3.014c-3-2.18-6.025-4.36-8.773-6.541c-0.4-0.32-1.07-0.641-1.474-0.961
		c-0.311-0.245-0.769-0.249-1.079,0c-3.595,2.896-7.257,5.791-10.851,8.686c-4.824,3.885-9.68,7.771-14.504,11.655
		c-0.293,0.236-0.604,0.473-0.897,0.709c-0.147,0.059-0.261,0.165-0.326,0.292c-0.099,0.144-0.117,0.539-0.072,0.682
		C0.069,22.501,0.286,23,0.68,23C2.051,23,4,23,5,23v20.328C5,43.574,4.952,44,5.198,44h19.3C24.744,44,26,43.574,26,43.328V26h9
		v17.328C35,43.574,34.403,44,34.649,44h13.834C48.729,44,50,43.574,50,43.328V23c0,0-0.264,0,0.14,0c1.189,0,2.381,0,3.572,0
		C54.248,23,55.348,21.997,54.869,21.618z"/>
</g>
</svg>
