<?xml version="1.0" encoding="utf-8"?>
<!-- Generator: Adobe Illustrator 16.0.0, SVG Export Plug-In . SVG Version: 6.00 Build 0)  -->
<!DOCTYPE svg PUBLIC "-//W3C//DTD SVG 1.1//EN" "http://www.w3.org/Graphics/SVG/1.1/DTD/svg11.dtd">
<svg version="1.1" id="Layer_1" xmlns="http://www.w3.org/2000/svg" xmlns:xlink="http://www.w3.org/1999/xlink" x="0px" y="0px"
	 width="202px" height="178px" viewBox="0 0 202 178" enable-background="new 0 0 202 178" xml:space="preserve">
<g>
	<path fill="#F1F1F1" d="M196.063,24h-28.797l-6.891-19.312C159.258,1.707,155.725,0,152.444,0H51.439
		c-3.281,0-6.815,1.707-7.935,4.688L36.615,24H5.937C2.656,24,0,26.302,0,29.586V172.18c0,3.285,2.656,5.82,5.937,5.82h190.126
		c3.281,0,5.937-2.535,5.937-5.82V29.586C202,26.302,199.344,24,196.063,24z M100.57,144.33c-25.637,0-46.418-20.783-46.418-46.418
		c0-25.634,20.781-46.418,46.418-46.418c25.637,0,46.417,20.784,46.417,46.418C146.987,123.547,126.207,144.33,100.57,144.33z"/>
	<path fill="#F1F1F1" d="M101,64.771c-18.048,0-32.678,14.627-32.678,32.678c0,18.045,14.63,32.678,32.678,32.678
		s32.678-14.633,32.678-32.678C133.678,79.397,119.048,64.771,101,64.771z"/>
</g>
<path fill="#004947" d="M1524.743-285.32c-9.333-7.409-19.743-15.106-27.743-22.515v-22.089c0-0.654-1.041-2.076-1.695-2.076
	h-15.388c-0.654,0-0.917,1.421-0.917,2.076v7.995c-8-5.784-14.707-11.567-21.992-17.351c-1.066-0.85-2.203-1.699-3.273-2.549
	c-0.824-0.652-1.721-0.662-2.545,0c-9.535,7.68-19.088,15.36-28.621,23.039c-12.798,10.306-25.601,20.613-38.398,30.918
	c-0.777,0.627-1.559,1.252-2.337,1.879c-0.391,0.156-0.674,0.438-0.846,0.775c-0.262,0.381-0.299,1.083-0.182,1.466
	c0.121,0.773,0.705,1.752,1.751,1.752c3.639,0,6.443,0,10.443,0v54.614c0,0.654,0.887,1.386,1.541,1.386h51.195
	c0.652,0,1.264-0.731,1.264-1.386V-274h24v46.614c0,0.654,1.012,1.386,1.666,1.386h36.696c0.651,0,1.638-0.731,1.638-1.386V-282
	c0,0,1.687,0,2.757,0c3.158,0,6.317,0,9.478,0C1524.654-282,1526.013-284.314,1524.743-285.32z"/>
</svg>
