<?xml version="1.0" encoding="utf-8"?>
<!-- Generator: Adobe Illustrator 16.0.0, SVG Export Plug-In . SVG Version: 6.00 Build 0)  -->
<!DOCTYPE svg PUBLIC "-//W3C//DTD SVG 1.1//EN" "http://www.w3.org/Graphics/SVG/1.1/DTD/svg11.dtd">
<svg version="1.1" id="Layer_1" xmlns="http://www.w3.org/2000/svg" xmlns:xlink="http://www.w3.org/1999/xlink" x="0px" y="0px"
	 width="100%" height="100%" viewBox="0 0 144.402 116" enable-background="new 0 0 144.402 116" xml:space="preserve">
<path fill="#024A48" d="M143.871,56.698C134.539,49.289,124,41.896,116,34.487V12.398c0-0.654-0.784-2.684-1.438-2.684H99.175
	c-0.654,0-1.175,2.029-1.175,2.684v7.995C90,14.609,83.422,8.825,76.137,3.042c-1.066-0.85-2.139-1.699-3.209-2.549
	c-0.824-0.652-1.688-0.662-2.513,0c-9.535,7.68-19.071,15.36-28.605,23.039C29.013,33.836,16.218,44.144,3.42,54.449
	c-0.777,0.627-1.555,1.252-2.333,1.879c-0.391,0.156-0.672,0.438-0.844,0.775c-0.262,0.381-0.298,0.78-0.181,1.163
	c0.121,0.773,0.706,1.448,1.752,1.448c3.639,0,6.185,0,10.185,0v55.222c0,0.654,1.145,0.778,1.799,0.778h51.195
	c0.652,0,1.006-0.124,1.006-0.778V67.714h24v47.222c0,0.654,1.27,0.778,1.924,0.778h36.696c0.652,0,1.38-0.124,1.38-0.778V59.714
	c0,0,1.944,0,3.015,0c3.157,0,6.316,0,9.477,0C143.911,59.714,145.141,57.704,143.871,56.698z"/>
</svg>
