<?xml version="1.0" encoding="utf-8"?>
<!-- Generator: Adobe Illustrator 16.0.0, SVG Export Plug-In . SVG Version: 6.00 Build 0)  -->
<!DOCTYPE svg PUBLIC "-//W3C//DTD SVG 1.1//EN" "http://www.w3.org/Graphics/SVG/1.1/DTD/svg11.dtd">
<svg version="1.1" id="Layer_1" xmlns="http://www.w3.org/2000/svg" xmlns:xlink="http://www.w3.org/1999/xlink" x="0px" y="0px"
	 width="603.149px" height="99.294px" viewBox="0 0 603.149 99.294" enable-background="new 0 0 603.149 99.294"
	 xml:space="preserve">
<path fill="#F2F2F2" d="M547.007,66.654V1.115h15.832v55.2h40.311v10.339H547.007L547.007,66.654z M512.616,66.654V1.115h15.832
	v65.539H512.616L512.616,66.654z M444.313,63.032l5.861-10.427c6.234,3.221,12.387,4.826,18.433,4.826
	c9.309,0,13.941-2.381,13.941-7.148c0-2.243-1.102-4.367-3.28-6.397c-2.183-2.028-6.713-4.308-13.551-6.826
	c-6.838-2.519-11.449-4.594-13.817-6.214c-2.367-1.635-4.197-3.56-5.485-5.802c-1.27-2.228-1.911-4.703-1.911-7.421
	c0-5.069,2.531-9.27,7.582-12.614C457.137,1.666,463.621,0,471.534,0c10.309,0,17.874,1.421,22.714,4.245l-4.823,10.02
	c-5.546-2.919-11.428-4.383-17.575-4.383c-3.66,0-6.484,0.714-8.5,2.124c-2.015,1.419-3.014,3.267-3.014,5.522
	c0,3.76,5.653,7.665,16.978,11.73c5.963,2.139,10.265,4.121,12.904,5.925c2.64,1.801,4.654,3.909,6.023,6.304
	c1.396,2.398,2.08,5.084,2.08,8.034c0,5.313-2.846,9.679-8.56,13.099c-5.697,3.435-13.344,5.145-22.92,5.145
	C458.527,67.765,451.026,66.193,444.313,63.032L444.313,63.032z M399.827,20.264l-10.722,24.202h21.421L399.827,20.264
	L399.827,20.264z M421.666,66.654l-6.502-13.285h-30.565l-6.215,13.285h-17.579l35.552-66.439h6.941l35.846,66.439H421.666
	L421.666,66.654z M309.897,11.225v18.201c2.928,0.181,5.171,0.275,6.713,0.275c6.604,0,11.449-0.69,14.501-2.063
	c3.074-1.373,4.616-4.029,4.616-8c0-3.218-1.645-5.48-4.947-6.75c-3.281-1.279-8.456-1.92-15.522-1.92
	C313.554,10.967,311.766,11.04,309.897,11.225L309.897,11.225z M343.745,66.654l-23.79-27.059c-2.39-0.029-5.735-0.138-10.058-0.323
	v27.382h-16.436V1.115c0.892,0,4.322-0.107,10.306-0.336c5.962-0.228,10.763-0.337,14.417-0.337
	c22.654,0,33.978,6.447,33.978,19.334c0,3.875-1.579,7.4-4.697,10.597c-3.116,3.189-7.066,5.432-11.802,6.746l26.347,29.535H343.745
	L343.745,66.654z M235.092,35.244v21.653c3.202,0.212,5.799,0.317,7.793,0.317c7.065,0,12.198-0.886,15.376-2.638
	c3.182-1.757,4.781-4.689,4.781-8.765c0-3.725-1.478-6.443-4.448-8.139c-2.97-1.709-8.145-2.549-15.521-2.549
	C241.534,35.122,238.874,35.153,235.092,35.244L235.092,35.244z M235.092,10.462v15.707c2.435,0.109,4.987,0.172,7.671,0.172
	c10.305,0,15.459-2.842,15.459-8.534c0-5.041-4.676-7.56-14.047-7.56C241.7,10.248,238.667,10.325,235.092,10.462L235.092,10.462z
	 M246.544,66.654h-27.283V1.163c12.031-0.414,20.445-0.626,25.267-0.626c9.268,0,16.5,1.453,21.714,4.367
	c5.217,2.902,7.813,7.053,7.813,12.443c0,5.193-3.741,9.297-11.201,12.305c11.077,2.842,16.624,8.69,16.624,17.546
	c0,5.957-3.073,10.688-9.186,14.201C264.164,64.896,256.247,66.654,246.544,66.654L246.544,66.654z M150.356,66.654V1.115h15.834
	v55.2h40.311v10.339H150.356L150.356,66.654z M110.377,11.455v55.2H94.545v-55.2H66.184V1.115h73.826v10.339H110.377L110.377,11.455
	z M0,66.654v-3.759l37.196-51.441H0.624V1.115h58.14v3.759L21.446,56.315h38.648v10.339H0L0,66.654z"/>
<g>
	<path fill="#F2F2F2" d="M396.246,78.998l-0.273,1.916c-0.576-0.298-1.167-0.521-1.771-0.67c-0.605-0.149-1.234-0.224-1.888-0.224
		c-1.402,0-2.499,0.284-3.291,0.85c-0.792,0.567-1.188,1.345-1.188,2.333c0,1.249,1.335,2.636,4.004,4.163
		c0.365,0.201,0.644,0.36,0.836,0.475c1.854,1.076,3.059,1.993,3.615,2.751c0.557,0.758,0.836,1.68,0.836,2.766
		c0,1.699-0.603,3.078-1.808,4.134c-1.206,1.057-2.783,1.584-4.732,1.584c-0.797,0-1.589-0.079-2.376-0.238
		c-0.788-0.158-1.552-0.391-2.291-0.698l0.23-2.132c0.836,0.451,1.621,0.785,2.355,1.001c0.734,0.216,1.438,0.324,2.11,0.324
		c1.354,0,2.438-0.346,3.255-1.037s1.225-1.613,1.225-2.766c0-1.383-1.297-2.818-3.889-4.307c-0.404-0.23-0.711-0.408-0.922-0.533
		c-1.787-1.047-2.966-1.95-3.537-2.708c-0.571-0.759-0.856-1.652-0.856-2.68c0-1.575,0.563-2.801,1.692-3.68
		c1.128-0.878,2.72-1.318,4.775-1.318c0.624,0,1.255,0.058,1.894,0.173S395.555,78.768,396.246,78.998z"/>
	<path fill="#F2F2F2" d="M400.999,77.37h2.118v2.392h-2.118V77.37z M401.144,84.241h1.858v14.692h-1.858V84.241z"/>
	<path fill="#F2F2F2" d="M415.246,84.572v1.729c-0.548-0.24-1.107-0.422-1.679-0.547c-0.571-0.125-1.154-0.188-1.75-0.188
		c-0.922,0-1.664,0.197-2.226,0.591c-0.562,0.394-0.843,0.907-0.843,1.541c0,0.874,0.951,1.748,2.853,2.622
		c0.191,0.096,0.331,0.164,0.418,0.202c1.488,0.701,2.516,1.375,3.082,2.024c0.566,0.648,0.85,1.428,0.85,2.34
		c0,1.287-0.482,2.312-1.447,3.076c-0.965,0.763-2.264,1.145-3.896,1.145c-0.721,0-1.404-0.058-2.053-0.173
		s-1.251-0.293-1.808-0.533v-1.743c0.624,0.308,1.251,0.538,1.88,0.691c0.629,0.154,1.251,0.23,1.865,0.23
		c1.047,0,1.895-0.238,2.542-0.713c0.648-0.476,0.973-1.083,0.973-1.822c0-0.624-0.189-1.15-0.569-1.577
		c-0.379-0.427-1.322-0.996-2.83-1.707c-1.498-0.72-2.502-1.371-3.011-1.952s-0.763-1.284-0.763-2.11
		c0-1.066,0.441-1.938,1.324-2.614c0.884-0.677,2.036-1.016,3.457-1.016c0.663,0,1.297,0.041,1.902,0.123
		C414.122,84.272,414.698,84.399,415.246,84.572z"/>
	<path fill="#F2F2F2" d="M418.054,78.465h12.417v1.887l-10.702,16.81h10.961v1.771h-12.978V96.96l10.717-16.824h-10.415V78.465z"/>
	<path fill="#F2F2F2" d="M432.17,78.465h13.871v1.772h-5.992v18.697h-1.887V80.237h-5.992V78.465z"/>
	<path fill="#F2F2F2" d="M449.009,78.465h1.902v18.697h8.167v1.771h-10.069V78.465z"/>
	<path fill="#F2F2F2" d="M475.384,78.465h1.656v20.469h-1.858V80.64l-3.212,3.01l-1.124-1.238L475.384,78.465z"/>
	<path fill="#F2F2F2" d="M486.748,96.341h2.392v2.593h-2.392V96.341z"/>
	<path fill="#F2F2F2" d="M500.332,78.105c2.16,0,3.808,0.903,4.94,2.708c1.133,1.806,1.7,4.432,1.7,7.879
		c0,3.438-0.569,6.064-1.707,7.879c-1.139,1.815-2.783,2.723-4.934,2.723c-2.161,0-3.806-0.903-4.934-2.708
		c-1.129-1.806-1.692-4.437-1.692-7.894c0-3.448,0.566-6.074,1.699-7.879C496.538,79.008,498.181,78.105,500.332,78.105z
		 M500.332,79.732c-1.489,0-2.622,0.761-3.399,2.283c-0.778,1.522-1.167,3.738-1.167,6.647c0,2.919,0.389,5.135,1.167,6.648
		c0.777,1.512,1.91,2.269,3.399,2.269c1.498,0,2.641-0.761,3.428-2.283c0.787-1.522,1.182-3.733,1.182-6.633
		c0-2.9-0.395-5.113-1.182-6.64S501.83,79.732,500.332,79.732z"/>
	<path fill="#F2F2F2" d="M519.59,78.465h2.867l6.899,16.839c0.105,0.24,0.196,0.507,0.273,0.799
		c0.077,0.293,0.145,0.626,0.202,1.001c0.028-0.298,0.076-0.586,0.144-0.864c0.067-0.279,0.159-0.552,0.274-0.821l7.26-16.954h2.794
		v20.469h-1.771V81.677c0-0.029-0.005-0.105-0.015-0.23c-0.01-0.125-0.015-0.245-0.015-0.36c0-0.192,0.012-0.387,0.036-0.583
		s0.06-0.406,0.108-0.626c-0.23,0.499-0.433,0.979-0.605,1.44c-0.02,0.048-0.033,0.077-0.043,0.086l-7.403,17.53h-1.643
		l-7.289-17.53c-0.048-0.105-0.158-0.446-0.331-1.022c-0.058-0.211-0.105-0.379-0.144-0.504c0.028,0.346,0.064,0.718,0.107,1.116
		c0.044,0.398,0.065,0.626,0.065,0.684v17.256h-1.772V78.465z"/>
	<path fill="#F2F2F2" d="M551.279,83.924c2.084,0,3.74,0.689,4.97,2.067c1.229,1.378,1.844,3.244,1.844,5.596
		c0,2.353-0.617,4.226-1.851,5.618c-1.234,1.393-2.889,2.089-4.963,2.089c-2.064,0-3.716-0.696-4.955-2.089
		c-1.238-1.392-1.857-3.265-1.857-5.618c0-2.343,0.616-4.206,1.851-5.589C547.551,84.616,549.205,83.924,551.279,83.924z
		 M551.279,85.48c-1.44,0-2.604,0.557-3.493,1.671c-0.888,1.114-1.332,2.583-1.332,4.408c0,1.815,0.446,3.282,1.34,4.4
		c0.893,1.119,2.055,1.678,3.485,1.678c1.479,0,2.66-0.552,3.544-1.657c0.883-1.104,1.325-2.578,1.325-4.422
		c0-1.853-0.442-3.33-1.325-4.429C553.939,86.03,552.758,85.48,551.279,85.48z"/>
	<path fill="#F2F2F2" d="M562.111,76.953h1.858v9.737c0.499-0.893,1.154-1.577,1.966-2.053c0.812-0.475,1.73-0.713,2.759-0.713
		c1.814,0,3.271,0.677,4.371,2.031c1.1,1.354,1.649,3.165,1.649,5.431c0,2.295-0.542,4.161-1.628,5.596
		c-1.085,1.436-2.482,2.153-4.191,2.153c-1.123,0-2.112-0.271-2.967-0.814c-0.855-0.542-1.556-1.342-2.104-2.398v3.011h-1.714
		V76.953z M568.521,85.451c-1.432,0-2.548,0.536-3.35,1.606c-0.802,1.071-1.202,2.571-1.202,4.501c0,1.806,0.412,3.255,1.238,4.35
		s1.911,1.642,3.256,1.642c1.296,0,2.333-0.538,3.111-1.613c0.777-1.075,1.166-2.535,1.166-4.379c0-1.892-0.379-3.382-1.138-4.473
		C570.845,85.996,569.817,85.451,568.521,85.451z"/>
	<path fill="#F2F2F2" d="M578.432,77.37h2.118v2.392h-2.118V77.37z M578.576,84.241h1.858v14.692h-1.858V84.241z"/>
	<path fill="#F2F2F2" d="M585.273,76.953h1.858v21.981h-1.858V76.953z"/>
	<path fill="#F2F2F2" d="M603.149,90.853v1.066h-10.386c0.058,1.863,0.543,3.291,1.455,4.285c0.912,0.994,2.199,1.491,3.86,1.491
		c0.653,0,1.309-0.089,1.966-0.267c0.658-0.177,1.318-0.444,1.981-0.799v1.829c-0.644,0.279-1.307,0.487-1.988,0.627
		c-0.682,0.139-1.393,0.209-2.132,0.209c-2.17,0-3.87-0.687-5.099-2.06c-1.229-1.373-1.844-3.284-1.844-5.733
		c0-2.285,0.595-4.125,1.785-5.517c1.191-1.393,2.752-2.089,4.682-2.089c1.748,0,3.138,0.625,4.17,1.873
		C602.633,87.017,603.149,88.711,603.149,90.853z M601.349,90.55c-0.105-1.642-0.514-2.902-1.225-3.781
		c-0.71-0.878-1.68-1.318-2.909-1.318c-1.19,0-2.185,0.458-2.981,1.375c-0.798,0.917-1.268,2.159-1.412,3.724H601.349z"/>
</g>
</svg>
