<?xml version="1.0" encoding="utf-8"?>
<!-- Generator: Adobe Illustrator 16.0.0, SVG Export Plug-In . SVG Version: 6.00 Build 0)  -->
<!DOCTYPE svg PUBLIC "-//W3C//DTD SVG 1.1//EN" "http://www.w3.org/Graphics/SVG/1.1/DTD/svg11.dtd">
<svg version="1.1"
	 id="svg2" xmlns:inkscape="http://www.inkscape.org/namespaces/inkscape" sodipodi:modified="TRUE" inkscape:export-ydpi="204.75" inkscape:output_extension="org.inkscape.output.svg.inkscape" sodipodi:docname="icon_letter_mail.svg" inkscape:export-xdpi="204.75" inkscape:export-filename="D:\Cliparts\icon_letter_mail.png" inkscape:version="0.47 r22583" sodipodi:version="0.32" xmlns:dc="http://purl.org/dc/elements/1.1/" xmlns:cc="http://creativecommons.org/ns#" xmlns:rdf="http://www.w3.org/1999/02/22-rdf-syntax-ns#" xmlns:svg="http://www.w3.org/2000/svg" xmlns:sodipodi="http://sodipodi.sourceforge.net/DTD/sodipodi-0.dtd"
	 xmlns="http://www.w3.org/2000/svg" xmlns:xlink="http://www.w3.org/1999/xlink" x="0px" y="0px" width="56px" height="40px"
	 viewBox="0 0 56 40" enable-background="new 0 0 56 40" xml:space="preserve">
<title  id="title2888">Icon Letter Mail</title>
<sodipodi:namedview  width="60px" height="49px" id="base" inkscape:snap-global="false" inkscape:window-x="-4" inkscape:window-width="1280" inkscape:grid-points="true" inkscape:window-maximized="1" inkscape:document-units="px" inkscape:grid-bbox="true" inkscape:pageshadow="2" inkscape:pageopacity="0.0" inkscape:window-height="977" inkscape:current-layer="layer1" inkscape:window-y="-4" gridtolerance="10000" showgrid="true" inkscape:cy="14.935765" inkscape:cx="19.642801" inkscape:zoom="8.3747959" borderopacity="1.0" bordercolor="#666666" pagecolor="#ffffff">
	
		<inkscape:grid  type="xygrid" color="#0000ff" id="GridFromPre046Settings" snapvisiblegridlinesonly="true" enabled="true" visible="true" empspacing="4" empopacity="0.4" opacity="0.2" empcolor="#0000ff" spacingy="1px" spacingx="1px" originy="0px" originx="0px">
		</inkscape:grid>
</sodipodi:namedview>
<g id="layer1" transform="translate(-17,42)" inkscape:groupmode="layer" inkscape:label="Calque 1">
	<path id="rect3174" sodipodi:nodetypes="ccscccccccccccccccccccccccccccc" fill="#989898" d="M23-42c-3.313,0-6,2.682-6,6
		c0.074,9.098,0,18.728,0,28c0,3.193,2.484,5.777,5.625,5.969L67.25-2C70.449-2.129,73-4.766,73-8v-29.031
		C72.515-39.86,70.059-42,67.094-42C52.404-41.993,37.696-42,23-42z M22.906-38.844h44.375L45.813-17.375
		c-0.392,0.392-1.015,0.392-1.406,0L22.906-38.844z M70-37.313v29.094c0,1.733-0.625,2.713-1.875,3.063L53-20.313L70-37.313z
		 M20.344-37.188l16.719,16.719L21.781-5.188c-1.046-0.354-1.41-1.195-1.438-2.344V-37.188z M39.188-18.375l5.219,5.25
		c0.392,0.392,1.015,0.392,1.406,0l5.063-5.063L64.063-5h-38.25L39.188-18.375z"/>
</g>
</svg>
