<?xml version="1.0" encoding="utf-8"?>
<!-- Generator: Adobe Illustrator 16.0.0, SVG Export Plug-In . SVG Version: 6.00 Build 0)  -->
<!DOCTYPE svg PUBLIC "-//W3C//DTD SVG 1.1//EN" "http://www.w3.org/Graphics/SVG/1.1/DTD/svg11.dtd">
<svg version="1.1" id="Layer_1" xmlns="http://www.w3.org/2000/svg" xmlns:xlink="http://www.w3.org/1999/xlink" x="0px" y="0px"
	 width="841.889px" height="205.662px" viewBox="0 389.619 841.889 205.662" enable-background="new 0 389.619 841.889 205.662"
	 xml:space="preserve">
<path fill="#989898" d="M0,389.619v196.672h149.281V389.619H0z M36.728,569.648c0,3.305-3.088,5.979-6.391,5.979H18.599
	c-3.301,0-5.565-2.678-5.565-5.979v-11.734c0-3.303,2.266-5.979,5.565-5.979h11.738c3.301,0,6.391,2.676,6.391,5.979V569.648z
	 M37.913,535.554c0,3.303-3.521,6.9-6.82,6.9H19.149c-3.3,0-6.115-3.6-6.115-6.9v-11.945c0-3.301,2.815-6.035,6.115-6.035h11.944
	c3.3,0,6.82,2.734,6.82,6.035V535.554z M36.728,505.671c0,3.303-2.677,5.979-5.979,5.979H19.011c-3.301,0-5.979-2.676-5.979-5.979
	v-11.738c0-3.301,2.679-5.979,5.979-5.979h11.738c3.302,0,5.979,2.678,5.979,5.979V505.671z M37.913,474.876
	c0,3.305-3.232,5.971-6.533,5.971H19.724c-3.302,0-6.69-2.666-6.69-5.971v-11.652c0-3.305,3.39-4.889,6.69-4.889H31.38
	c3.301,0,6.533,1.584,6.533,4.887V474.876z M72.272,569.648c0,3.305-3.089,5.979-6.391,5.979H54.142
	c-3.301,0-5.564-2.678-5.564-5.979v-11.734c0-3.303,2.265-5.979,5.564-5.979h11.739c3.301,0,6.391,2.676,6.391,5.979V569.648z
	 M72.272,535.291c0,3.303-3.089,5.979-6.391,5.979H54.142c-3.301,0-5.564-2.676-5.564-5.979v-11.736
	c0-3.303,2.265-5.979,5.564-5.979h11.739c3.301,0,6.391,2.678,6.391,5.979V535.291z M72.272,505.671
	c0,3.303-2.678,5.979-5.979,5.979H54.554c-3.301,0-5.978-2.676-5.978-5.979v-11.738c0-3.301,2.677-5.979,5.978-5.979h11.739
	c3.301,0,5.979,2.678,5.979,5.979V505.671z M72.272,474.876c0,3.305-3.856,5.971-7.157,5.971H53.458
	c-3.303,0-4.882-2.666-4.882-5.971v-11.652c0-3.305,1.579-4.889,4.882-4.889h11.655c3.301,0,7.157,1.584,7.157,4.887L72.272,474.876
	L72.272,474.876z M101.891,570.568c0,3.033-2.741,5.061-6.319,5.061H84.969c-3.578,0-5.589-2.027-5.589-5.061V557.99
	c0-3.031,2.011-6.057,5.589-6.057h10.603c3.578,0,6.319,3.025,6.319,6.057V570.568z M101.891,536.292
	c0,3.748-2.741,7.348-6.319,7.348H84.969c-3.578,0-5.589-3.6-5.589-7.348v-11.557c0-3.746,2.011-7.162,5.589-7.162h10.603
	c3.578,0,6.319,3.416,6.319,7.162V536.292z M101.891,505.253c0,3.543-2.741,6.396-6.319,6.396H84.969
	c-3.578,0-5.589-2.855-5.589-6.396v-10.729c0-3.543,2.011-6.57,5.589-6.57h10.603c3.578,0,6.319,3.027,6.319,6.57V505.253z
	 M101.891,475.783c0,3.34-2.741,6.248-6.319,6.248H84.969c-3.578,0-5.589-2.908-5.589-6.248v-11.465c0-3.34,2.011-5.982,5.589-5.982
	h10.603c3.578,0,6.319,2.643,6.319,5.982V475.783z M136.249,529.609v7.773v20.328v1.494v9.271c0,3.303-3.397,2.414-6.699,2.414
	h-11.96c-3.304,0-5.036,0.889-5.036-2.414v-9.271v-1.494v-20.328v-7.773v-2.988c0-3.303,1.732-9.047,5.036-9.047h11.96
	c3.302,0,6.699,5.744,6.699,9.047V529.609z M136.249,505.671c0,3.303-2.677,5.979-5.978,5.979h-11.741
	c-3.301,0-5.978-2.676-5.978-5.979v-11.738c0-3.301,2.677-5.979,5.978-5.979h11.741c3.301,0,5.978,2.678,5.978,5.979V505.671z
	 M136.249,474.876c0,3.305-3.739,5.971-7.038,5.971h-11.656c-3.302,0-5.001-2.666-5.001-5.971v-11.652
	c0-3.305,1.699-4.889,5.001-4.889h11.656c3.299,0,7.038,1.584,7.038,4.887V474.876z M133.88,434.541
	c0,5.945-4.817,10.762-10.763,10.762H23.795c-5.945,0-10.764-4.818-10.764-10.762v-18.76c0-5.941,4.817-10.76,10.764-10.76h99.322
	c5.944,0,10.763,4.818,10.763,10.76V434.541L133.88,434.541z"/>
<g>
	<path fill="#989898" d="M200.966,429.443h36.949c16.111,0,28.049,3.168,35.813,9.502c7.763,6.332,11.646,16.066,11.646,29.199
		c0,12.143-4.06,21.57-12.171,28.281c-8.114,6.715-19.584,10.07-34.41,10.07h-13.31v47.369h-24.516V429.443H200.966z
		 M225.481,446.955v42.029h10.07c7.997,0,14.126-1.795,18.388-5.385c4.26-3.59,6.393-8.74,6.393-15.453
		c0-6.771-2.028-11.996-6.085-15.674c-4.059-3.678-9.822-5.518-17.293-5.518H225.481L225.481,446.955z"/>
	<path fill="#989898" d="M303.322,429.443h40.714c15.178,0,26.56,2.67,34.147,8.012c7.587,5.342,11.382,13.354,11.382,24.035
		c0,7.996-2.247,14.607-6.741,19.832c-4.495,5.225-10.917,8.711-19.264,10.463c3.562,1.168,6.437,2.918,8.624,5.254
		c2.189,2.336,4.626,6.859,7.313,13.572l17.249,43.254h-25.829l-14.011-37.65c-1.984-5.43-4.554-9.207-7.704-11.338
		c-3.151-2.131-7.823-3.197-14.01-3.197h-7.706v52.186h-24.164V429.443L303.322,429.443z M327.487,446.781v37.475h12.61
		c7.938,0,14.066-1.635,18.388-4.904c4.319-3.27,6.479-7.908,6.479-13.92c0-6.42-2.146-11.133-6.437-14.143
		c-4.292-3.006-11.049-4.51-20.27-4.51L327.487,446.781L327.487,446.781z"/>
	<path fill="#989898" d="M412.681,429.443h76v17.863h-51.484v33.008h48.771v18.301h-48.771v36.424h53.323v18.826h-77.839V429.443
		L412.681,429.443z"/>
	<path fill="#989898" d="M610.035,433.384l-1.574,19.699c-0.471-0.174-1.082-0.406-1.84-0.699
		c-11.56-4.32-20.575-6.479-27.056-6.479c-13.66,0-24.575,4.232-32.748,12.695c-8.172,8.465-12.259,19.73-12.259,33.799
		c0,13.309,4.218,24.107,12.652,32.396c8.434,8.289,19.569,12.432,33.403,12.432c4.61,0,11.558-1.604,20.839-4.816
		c3.27-1.105,5.72-1.895,7.354-2.361l2.101,19.699c-1.518,0.408-3.764,1.021-6.74,1.84c-11.268,3.211-19.818,4.814-25.653,4.814
		c-21.424,0-38.323-5.75-50.697-17.25c-12.375-11.5-18.562-27.084-18.562-46.756c0-19.67,6.2-35.533,18.604-47.588
		c12.403-12.053,28.851-18.082,49.339-18.082c6.362,0,14.975,1.576,25.831,4.729C606.24,432.332,608.574,432.976,610.035,433.384z
		 M563.98,553.865h8.229v8.23h1.313c6.596,0,11.586,1.387,14.974,4.16c3.385,2.77,5.077,6.898,5.077,12.389
		c0,5.428-1.896,9.557-5.69,12.391c-3.795,2.83-9.368,4.246-16.724,4.246c-2.978,0-6.394-0.322-10.244-0.963
		c-3.853-0.643-8.085-1.576-12.695-2.803v-9.896c4.203,1.168,8.216,2.027,12.039,2.584c3.822,0.557,7.28,0.83,10.376,0.83
		c3.093,0,5.385-0.539,6.873-1.619s2.232-2.729,2.232-4.945c0-2.512-0.847-4.307-2.54-5.387c-1.692-1.08-4.554-1.617-8.58-1.617
		c-1.226,0-2.176,0.014-2.845,0.043c-0.672,0.027-1.271,0.045-1.796,0.045V553.865L563.98,553.865z"/>
	<path fill="#989898" d="M683.407,426.728c18.271,0,32.675,5.779,43.21,17.338c10.536,11.557,15.807,27.404,15.807,47.543
		c0,20.197-5.239,36.047-15.719,47.545c-10.479,11.5-24.909,17.25-43.298,17.25c-18.329,0-32.718-5.75-43.166-17.25
		c-10.45-11.5-15.674-27.348-15.674-47.545c0-20.254,5.239-36.131,15.718-47.633C650.764,432.478,665.139,426.728,683.407,426.728z
		 M683.407,445.205c-10.155,0-18.343,4.189-24.56,12.564c-6.218,8.375-9.325,19.541-9.325,33.49c0,14.012,3.094,25.23,9.282,33.668
		c6.186,8.436,14.389,12.65,24.603,12.65s18.444-4.229,24.693-12.695c6.245-8.465,9.367-19.672,9.367-33.623
		c0-13.891-3.122-25.041-9.367-33.447C701.855,449.406,693.621,445.205,683.407,445.205z"/>
	<path fill="#989898" d="M837.246,432.683l-2.101,19.525c-4.669-2.102-9.296-3.678-13.877-4.729
		c-4.584-1.051-9.122-1.578-13.616-1.578c-6.597,0-11.73,1.213-15.409,3.635s-5.516,5.822-5.516,10.201
		c0,5.428,6.654,11.5,19.963,18.211c1.282,0.643,2.277,1.137,2.978,1.488c12.433,6.305,20.91,12.273,25.436,17.906
		c4.523,5.635,6.788,12.391,6.788,20.27c0,11.5-4.378,20.896-13.135,28.193c-8.758,7.297-20.258,10.945-34.497,10.945
		c-5.84,0-15.674-2.104-29.508-6.305c-1.457-0.467-2.569-0.846-3.326-1.139l2.274-21.275c7.004,3.445,12.872,5.896,17.601,7.355
		c4.728,1.459,9.048,2.188,12.959,2.188c6.595,0,11.951-1.531,16.065-4.598c4.117-3.063,6.174-6.93,6.174-11.602
		c0-6.07-6.653-12.725-19.963-19.963l-2.101-1.137c-0.525-0.293-1.372-0.73-2.542-1.314c-9.864-5.254-16.812-10.039-20.838-14.359
		c-2.859-3.035-5.035-6.48-6.523-10.332c-1.487-3.854-2.232-7.938-2.232-12.258c0-10.566,4.128-19.088,12.39-25.568
		c8.259-6.479,19.306-9.719,33.142-9.719c5.368,0,13.19,1.432,23.466,4.291C833.978,431.779,835.963,432.332,837.246,432.683z"/>
</g>
</svg>
