<?xml version="1.0" encoding="utf-8"?>
<!-- Generator: Adobe Illustrator 16.0.0, SVG Export Plug-In . SVG Version: 6.00 Build 0)  -->
<!DOCTYPE svg PUBLIC "-//W3C//DTD SVG 1.1//EN" "http://www.w3.org/Graphics/SVG/1.1/DTD/svg11.dtd">
<svg version="1.1" id="Layer_1" xmlns="http://www.w3.org/2000/svg" xmlns:xlink="http://www.w3.org/1999/xlink" x="0px" y="0px"
	 width="127.001px" height="87.999px" viewBox="0 0 127.001 87.999" enable-background="new 0 0 127.001 87.999"
	 xml:space="preserve">
<g>
	<polygon fill="#F2F2F2" points="0,88.055 10.86,88.055 10.86,80.361 	"/>
	<path fill="#F2F2F2" d="M11.484,80.055h0.376v8h9v-8h1v8h10v-12h2v12h9v-8h1v8h10v-8h1v8h8v-12h2v12h10v-8h1v8h9v-8h1v8h9v-12h2v12
		h9v-8h1v8h10v-8h1v8h9V0L11.484,80.055z M113.86,72.055H45.021l68.839-47.781V72.055z"/>
</g>
</svg>
