<?xml version="1.0" encoding="utf-8"?>
<!-- Generator: Adobe Illustrator 16.0.0, SVG Export Plug-In . SVG Version: 6.00 Build 0)  -->
<!DOCTYPE svg PUBLIC "-//W3C//DTD SVG 1.1//EN" "http://www.w3.org/Graphics/SVG/1.1/DTD/svg11.dtd">
<svg version="1.1" id="Layer_1" xmlns="http://www.w3.org/2000/svg" xmlns:xlink="http://www.w3.org/1999/xlink" x="0px" y="0px"
	 width="841.889px" height="200.738px" viewBox="0 197.271 841.889 200.738" enable-background="new 0 197.271 841.889 200.738"
	 xml:space="preserve">
<g>
	<g>
		<path fill="#989898" d="M269.041,252.791h21.491l26.992,84.885l27.281-84.885h20.626l-36.618,102.832h-24.604L269.041,252.791z"/>
		<path fill="#989898" d="M377.3,252.791h62.813v14.762h-42.552v27.282h40.309v15.125h-40.309v30.104h44.071v15.559H377.3V252.791
			L377.3,252.791z"/>
		<path fill="#989898" d="M461.606,252.791h25.473l37.776,71.859c0.963,1.979,2.036,4.559,3.219,7.744
			c1.182,3.184,2.375,6.826,3.582,10.926c-0.821-4.873-1.437-9.311-1.847-13.314c-0.409-4.006-0.613-7.43-0.613-10.275v-66.939
			h18.381v102.832h-25.112l-38.934-73.523c-1.014-1.833-2.024-4.245-3.039-7.236c-1.014-2.992-2.027-6.513-3.04-10.566
			c0.771,6.031,1.387,11.205,1.847,15.522c0.457,4.318,0.686,7.345,0.686,9.083v66.723h-18.38V252.791H461.606z"/>
		<path fill="#989898" d="M570.372,252.791h29.452c8.73,0,16.197,0.604,22.397,1.81c6.198,1.206,11.276,3.064,15.231,5.572
			c7.383,4.679,12.919,10.686,16.608,18.019c3.692,7.334,5.537,15.946,5.537,25.836c0,9.891-1.87,18.488-5.61,25.799
			c-3.738,7.309-9.347,13.279-16.824,17.91c-4.196,2.703-9.47,4.693-15.811,5.971c-6.346,1.279-14.054,1.918-23.122,1.918h-27.859
			V252.791z M590.779,268.059v71.716h11.725c11.385,0,20.236-3.16,26.557-9.48c6.321-6.32,9.481-15.172,9.481-26.559
			c0-11.579-3.148-20.419-9.445-26.522c-6.296-6.103-15.354-9.155-27.173-9.155H590.779L590.779,268.059z"/>
		<path fill="#989898" d="M704.971,252.791h24.461l39.729,102.832h-21.855l-8.538-24.314h-44.795l-8.901,24.314h-20.117
			L704.971,252.791z M716.841,269.941l-17.224,46.242h33.796L716.841,269.941z"/>
		<path fill="#989898" d="M838.053,255.467l-1.736,16.138c-3.859-1.737-7.683-3.04-11.47-3.908
			c-3.788-0.869-7.538-1.303-11.253-1.303c-5.452,0-9.696,1.002-12.735,3.003c-3.04,2.002-4.56,4.813-4.56,8.431
			c0,4.487,5.5,9.505,16.5,15.053c1.06,0.531,1.882,0.94,2.46,1.229c10.275,5.21,17.283,10.144,21.022,14.8
			c3.738,4.656,5.609,10.238,5.609,16.752c0,9.504-3.617,17.271-10.855,23.301c-7.237,6.031-16.742,9.047-28.512,9.047
			c-4.825,0-12.953-1.736-24.388-5.211c-1.204-0.387-2.123-0.699-2.749-0.939l1.881-17.586c5.789,2.848,10.639,4.873,14.546,6.078
			c3.907,1.207,7.479,1.811,10.71,1.811c5.451,0,9.879-1.268,13.279-3.801c3.403-2.531,5.103-5.729,5.103-9.588
			c0-5.018-5.5-10.516-16.499-16.5l-1.736-0.941c-0.434-0.24-1.134-0.602-2.101-1.084c-8.153-4.344-13.894-8.299-17.223-11.869
			c-2.363-2.508-4.161-5.355-5.392-8.539c-1.229-3.185-1.846-6.561-1.846-10.132c0-8.732,3.412-15.776,10.24-21.131
			c6.826-5.355,15.956-8.033,27.391-8.033c4.438,0,10.902,1.183,19.394,3.546C835.35,254.72,836.991,255.178,838.053,255.467z"/>
	</g>
	<g>
		<rect x="0" y="197.271" fill="#989898" width="233.052" height="200.738"/>
		<g>
			<path fill="#FFFFFF" d="M29.007,245.564h41.442c13.791,0,24.022,2.235,30.698,6.711c6.676,4.475,10.015,11.283,10.015,20.427
				c0,6.75-1.762,12.3-5.283,16.65c-3.521,4.354-8.606,7.264-15.258,8.729c5.478,2.006,9.878,7.703,13.203,17.092v0.072
				l12.472,34.551H87.322l-9.171-28.535c-1.467-4.596-3.471-7.775-6.014-9.537c-2.544-1.758-6.505-2.639-11.884-2.639h-4.034v40.711
				H29.007V245.564z M56.22,263.901v26.701h9.756c6.016,0,10.525-1.09,13.533-3.265c3.006-2.177,4.511-5.439,4.511-9.792
				c0-4.695-1.675-8.143-5.024-10.344c-3.351-2.201-8.644-3.301-15.881-3.301H56.22z"/>
			<path fill="#FFFFFF" d="M161.26,232.8h8.289v11.957c4.596,0.098,9.217,0.476,13.864,1.136c4.645,0.66,9.266,1.603,13.863,2.825
				l-1.906,19.072c-3.769-1.762-7.691-3.081-11.773-3.963c-4.083-0.879-8.375-1.32-12.873-1.32h-1.174v22.373
				c12.03,2.446,20.942,6.283,26.737,11.518c5.795,5.233,8.692,12.055,8.692,20.463c0,9.096-3.203,16.541-9.608,22.338
				c-6.407,5.795-15.331,9.279-26.773,10.451v12.762h-8.362v-12.615h-1.834c-5.282,0-10.319-0.305-15.111-0.918
				c-4.793-0.609-9.415-1.551-13.863-2.822l1.906-21.348c4.596,1.908,9.303,3.363,14.12,4.365c4.816,1.004,9.72,1.553,14.708,1.65
				l0.074-24.791c-11.347-2.055-19.769-5.6-25.272-10.637c-5.5-5.036-8.25-11.76-8.25-20.172c0-8.704,2.981-15.673,8.948-20.906
				c5.966-5.233,14.5-8.337,25.6-9.316L161.26,232.8L161.26,232.8z M161.26,262.947c-3.521,0.54-6.26,1.713-8.214,3.521
				c-1.957,1.81-2.935,4.108-2.935,6.895c0,2.641,0.905,4.781,2.714,6.418c1.808,1.641,4.621,2.85,8.434,3.632L161.26,262.947
				L161.26,262.947z M168.597,307.4v22.811c3.86-0.195,6.833-1.258,8.912-3.189c2.077-1.934,3.118-4.561,3.118-7.887
				c0-3.031-0.966-5.488-2.897-7.371C175.794,309.882,172.752,308.425,168.597,307.4z"/>
		</g>
	</g>
</g>
</svg>
